:FULLY-SPECIFIED
:FORCE-ALL-JOINTS-BE-3DOF
:DEGREES
3058
root -1.64903 15.9803 -34.0554 1089.46 -9.16748 0.031407
lfemur -40.216 5.52959 -2.86757
ltibia 67.3159 0 0
lfoot -1.59241 7.79049 0
ltoes -28.7003 0 0
rfemur -39.2861 -8.47174 29.3358
rtibia 61.7552 0 0
rfoot -20.6216 -30.6532 0
rtoes -1.32693 0 0
lowerback 13.4963 0.197348 -2.00747
upperback -1.22401 0.0755442 1.67695
thorax -8.90773 0.180686 2.92344
lowerneck 4.58877 -10.536 -12.6734
upperneck -4.59273 -14.4652 10.6096
head -0.3546 -7.31687 5.26735
lclavicle -2.38601e-14 1.1377e-14 0
lhumerus 30.3244 -36.4802 81.446
lradius 64.9414 0 0
lwrist -9.00618 0 0
lhand -28.3672 389.399 0
lfingers 7.12502 0 0
lthumb -1.7405 -660.628 0
rclavicle -2.38601e-14 1.1377e-14 0
rhumerus 43.1677 36.198 -41.4818
rradius 95.112 0 0
rwrist -49.2925 0 0
rhand -5.89049 -387.727 0
rfingers 7.12502 0 0
rthumb 19.9374 303.279 0
3059
root -1.61281 15.9878 -34.0422 1089.48 -9.13373 -0.0536411
lfemur -40.1354 5.46602 -2.98033
ltibia 66.7288 0 0
lfoot -1.93796 7.57494 0
ltoes -29.0515 0 0
rfemur -39.0911 -8.30919 29.1909
rtibia 61.7596 0 0
rfoot -20.6144 -30.5196 0
rtoes -1.68766 0 0
lowerback 13.47 0.229581 -1.95343
upperback -1.23328 0.126609 1.66416
thorax -8.90334 0.201968 2.86737
lowerneck 4.50809 -10.4032 -12.5794
upperneck -4.49856 -14.2805 10.5096
head -0.343397 -7.22275 5.23062
lclavicle -2.39492e-14 1.06527e-14 0
lhumerus 29.4269 -36.4881 81.771
lradius 65.2058 0 0
lwrist -8.80273 0 0
lhand -28.3537 389.528 0
lfingers 7.12502 0 0
lthumb -1.72749 -660.5 0
rclavicle -2.39492e-14 1.06527e-14 0
rhumerus 41.7435 36.4369 -42.3785
rradius 95.5542 0 0
rwrist -49.1187 0 0
rhand -5.9494 -387.666 0
rfingers 7.12502 0 0
rthumb 19.8806 303.336 0
3060
root -1.5766 15.9952 -34.0291 1089.48 -9.03474 -0.133027
lfemur -40.0237 5.3934 -3.09544
ltibia 66.1034 0 0
lfoot -2.32208 7.32799 0
ltoes -29.4459 0 0
rfemur -38.8773 -8.13476 29.0236
rtibia 61.7551 0 0
rfoot -20.5994 -30.3721 0
rtoes -2.08284 0 0
lowerback 13.4384 0.262231 -1.89577
upperback -1.24293 0.17879 1.65097
thorax -8.89637 0.223612 2.80863
lowerneck 4.42153 -10.263 -12.4803
upperneck -4.39545 -14.0856 10.403
head -0.330552 -7.12331 5.19195
lclavicle -2.40741e-14 9.87725e-15 0
lhumerus 28.4347 -36.532 82.1358
lradius 65.485 0 0
lwrist -8.58397 0 0
lhand -28.3401 389.669 0
lfingers 7.12502 0 0
lthumb -1.71434 -660.358 0
rclavicle -2.40741e-14 9.87725e-15 0
rhumerus 40.1741 36.727 -43.3567
rradius 96.0412 0 0
rwrist -48.9128 0 0
rhand -6.00612 -387.595 0
rfingers 7.12502 0 0
rthumb 19.826 303.403 0
3061
root -1.54038 16.0027 -34.0159 1089.47 -8.86201 -0.205301
lfemur -39.8775 5.31101 -3.21231
ltibia 65.4392 0 0
lfoot -2.74716 7.04716 0
ltoes -29.8865 0 0
rfemur -38.6438 -7.94816 28.8322
rtibia 61.7405 0 0
rfoot -20.5756 -30.2098 0
rtoes -2.51418 0 0
lowerback 13.4008 0.295095 -1.83444
upperback -1.25294 0.231824 1.6374
thorax -8.88651 0.245494 2.74732
lowerneck 4.32897 -10.1154 -12.3761
upperneck -4.28296 -13.8803 10.2897
head -0.315933 -7.01861 5.15139
lclavicle -2.42389e-14 9.04958e-15 0
lhumerus 27.3425 -36.6166 82.5433
lradius 65.7789 0 0
lwrist -8.34949 0 0
lhand -28.3264 389.824 0
lfingers 7.12502 0 0
lthumb -1.70111 -660.203 0
rclavicle -2.42389e-14 9.04958e-15 0
rhumerus 38.4515 37.0734 -44.42
rradius 96.5753 0 0
rwrist -48.6721 0 0
rhand -6.05987 -387.511 0
rfingers 7.12502 0 0
rthumb 19.7743 303.482 0
3062
root -1.50417 16.0101 -34.0028 1089.44 -8.60703 -0.269016
lfemur -39.6933 5.21816 -3.33035
ltibia 64.7357 0 0
lfoot -3.2156 6.72996 0
ltoes -30.3763 0 0
rfemur -38.3897 -7.74912 28.6146
rtibia 61.7147 0 0
rfoot -20.542 -30.0321 0
rtoes -2.98341 0 0
lowerback 13.3568 0.327967 -1.7694
upperback -1.26329 0.28545 1.62351
thorax -8.87346 0.267492 2.68352
lowerneck 4.23025 -9.96056 -12.267
upperneck -4.16064 -13.6649 10.1697
head -0.29941 -6.90869 5.10897
lclavicle -2.44477e-14 8.16866e-15 0
lhumerus 26.1445 -36.7466 82.9961
lradius 66.0872 0 0
lwrist -8.09886 0 0
lhand -28.3127 389.994 0
lfingers 7.12502 0 0
lthumb -1.68791 -660.033 0
rclavicle -2.44477e-14 8.16866e-15 0
rhumerus 36.5675 37.481 -45.5721
rradius 97.1591 0 0
rwrist -48.3934 0 0
rhand -6.10988 -387.415 0
rfingers 7.12502 0 0
rthumb 19.7261 303.575 0
3063
root -1.46795 16.0176 -33.9897 1089.4 -8.26129 -0.322722
lfemur -39.4675 5.11413 -3.44896
ltibia 63.9927 0 0
lfoot -3.72981 6.37391 0
ltoes -30.9182 0 0
rfemur -38.1139 -7.53733 28.3692
rtibia 61.6762 0 0
rfoot -20.4976 -29.838 0
rtoes -3.49225 0 0
lowerback 13.3059 0.360644 -1.70058
upperback -1.27396 0.339404 1.60935
thorax -8.8569 0.289483 2.61733
lowerneck 4.12526 -9.79856 -12.1529
upperneck -4.02806 -13.4394 10.0428
head -0.280854 -6.79359 5.06472
lclavicle -2.47047e-14 7.23345e-15 0
lhumerus 24.8355 -36.927 83.4971
lradius 66.41 0 0
lwrist -7.83167 0 0
lhand -28.2991 390.179 0
lfingers 7.12502 0 0
lthumb -1.67481 -659.848 0
rclavicle -2.47047e-14 7.23345e-15 0
rhumerus 34.5143 37.9548 -46.8168
rradius 97.7949 0 0
rwrist -48.0741 0 0
rhand -6.15539 -387.304 0
rfingers 7.12502 0 0
rthumb 19.6823 303.682 0
3064
root -1.43173 16.0251 -33.9765 1089.33 -7.81629 -0.36497
lfemur -39.1966 4.99822 -3.56755
ltibia 63.2095 0 0
lfoot -4.29219 5.97653 0
ltoes -31.5152 0 0
rfemur -37.8156 -7.31253 28.0941
rtibia 61.624 0 0
rfoot -20.4414 -29.6269 0
rtoes -4.04243 0 0
lowerback 13.2476 0.392922 -1.62795
upperback -1.28491 0.393424 1.59496
thorax -8.83652 0.311342 2.54884
lowerneck 4.01383 -9.62947 -12.0339
upperneck -3.88478 -13.2039 9.90904
head -0.260132 -6.67335 5.01868
lclavicle -2.50139e-14 6.24292e-15 0
lhumerus 23.4098 -37.1623 84.0489
lradius 66.7469 0 0
lwrist -7.5475 0 0
lhand -28.2858 390.379 0
lfingers 7.12502 0 0
lthumb -1.6619 -659.648 0
rclavicle -2.50139e-14 6.24292e-15 0
rhumerus 32.2837 38.4996 -48.1578
rradius 98.4853 0 0
rwrist -47.7111 0 0
rhand -6.19561 -387.179 0
rfingers 7.12502 0 0
rthumb 19.6436 303.803 0
